<svg width="100%" height="100%" viewBox="0 0 24 24" version="1.1" xmlns="http://www.w3.org/2000/svg" xmlns:xlink="http://www.w3.org/1999/xlink" xml:space="preserve" xmlns:serif="http://www.serif.com/" style="fill-rule:evenodd;clip-rule:evenodd;stroke-linejoin:round;stroke-miterlimit:2;">
<path fill="#add8e6" d="M20.71,19.29l-3.4,-3.39c1.097,-1.397 1.692,-3.124 1.69,-4.9c0,-4.389 -3.611,-8 -8,-8c-4.389,0 -8,3.611 -8,8c0,4.389 3.611,8 8,8c1.776,0.002 3.503,-0.593 4.9,-1.69l3.39,3.4c0.188,0.189 0.443,0.296 0.71,0.296c0.267,0 0.522,-0.107 0.71,-0.296c0.189,-0.188 0.296,-0.443 0.296,-0.71c0,-0.267 -0.107,-0.522 -0.296,-0.71Zm-15.71,-8.29c0,-3.292 2.708,-6 6,-6c3.292,0 6,2.708 6,6c0,3.292 -2.708,6 -6,6c-3.292,0 -6,-2.708 -6,-6Z" style="fill-rule:nonzero;"/>
</svg>
